<?xml version="1.0" encoding="utf-8"?>
<!-- Generator: Adobe Illustrator 25.1.0, SVG Export Plug-In . SVG Version: 6.00 Build 0)  -->
<svg version="1.1" id="图层_1" xmlns="http://www.w3.org/2000/svg" xmlns:xlink="http://www.w3.org/1999/xlink" x="0px" y="0px"
	 viewBox="0 0 152.5 152.5" style="enable-background:new 0 0 152.5 152.5;" xml:space="preserve">
<style type="text/css">
	.st0{fill:#FFFFFF;stroke:#040000;stroke-width:0.866;stroke-miterlimit:10;}
	.st1{fill:#040000;}
	.st2{enable-background:new    ;}
	.st3{font-family:'HelveticaNeue-Bold';}
	.st4{font-size:18px;}
	.st5{clip-path:url(#SVGID_2_);}
</style>
<g id="ESP32_16_">
	<path id="XMLID_501_" class="st0" d="M34.1,121.4h84.2c1.6,0,2.9-1.3,2.9-2.9V34c0-1.6-1.3-2.9-2.9-2.9H34.1
		c-1.6,0-2.9,1.3-2.9,2.9v84.4C31.2,120.1,32.5,121.4,34.1,121.4z"/>
</g>
<g>
	<g id="XMLID_458_">
		<rect id="XMLID_462_" x="31.3" y="47.3" class="st1" width="6.1" height="4"/>
		<rect id="XMLID_461_" x="31.4" y="55.4" class="st1" width="6.1" height="4"/>
		<rect id="XMLID_460_" x="31.4" y="63.4" class="st1" width="6.1" height="4"/>
		<rect id="XMLID_459_" x="31.3" y="71.3" class="st1" width="6.1" height="4"/>
	</g>
	<g id="XMLID_448_">
		<rect id="XMLID_452_" x="31.5" y="78.9" class="st1" width="6.1" height="4"/>
		<rect id="XMLID_451_" x="31.6" y="87" class="st1" width="6.1" height="4"/>
		<rect id="XMLID_450_" x="31.6" y="95" class="st1" width="6.1" height="4"/>
		<rect id="XMLID_449_" x="31.5" y="102.9" class="st1" width="6.1" height="4"/>
	</g>
</g>
<g>
	<g id="XMLID_453_">
		<rect id="XMLID_457_" x="115.1" y="78.9" class="st1" width="6.1" height="4"/>
		<rect id="XMLID_456_" x="115.1" y="87" class="st1" width="6.1" height="4"/>
		<rect id="XMLID_455_" x="115.1" y="95" class="st1" width="6.1" height="4"/>
		<rect id="XMLID_454_" x="115.1" y="102.9" class="st1" width="6.1" height="4"/>
	</g>
	<g id="XMLID_437_">
		<g id="XMLID_438_">
			<rect id="XMLID_442_" x="114.9" y="47.4" class="st1" width="6.1" height="4"/>
			<rect id="XMLID_441_" x="114.9" y="55.5" class="st1" width="6.1" height="4"/>
			<rect id="XMLID_440_" x="114.9" y="63.5" class="st1" width="6.1" height="4"/>
			<rect id="XMLID_439_" x="114.9" y="71.4" class="st1" width="6.1" height="4"/>
		</g>
	</g>
</g>
<g id="XMLID_400_">
	<g>
		<g id="XMLID_426_">
			
				<rect id="XMLID_430_" x="100.5" y="32.1" transform="matrix(2.029807e-03 -1 1 2.029807e-03 69.2768 137.6344)" class="st1" width="6.1" height="4"/>
			
				<rect id="XMLID_429_" x="92.5" y="32.2" transform="matrix(2.029807e-03 -1 1 2.029807e-03 61.1288 129.6371)" class="st1" width="6.1" height="4"/>
			
				<rect id="XMLID_428_" x="84.4" y="32.1" transform="matrix(2.029807e-03 -1 1 2.029807e-03 53.1321 121.5303)" class="st1" width="6.1" height="4"/>
			
				<rect id="XMLID_427_" x="76.5" y="32.1" transform="matrix(2.029807e-03 -1 1 2.029807e-03 45.2142 113.6051)" class="st1" width="6.1" height="4"/>
		</g>
		<g id="XMLID_417_">
			
				<rect id="XMLID_425_" x="69" y="32.1" transform="matrix(2.029807e-03 -1 1 2.029807e-03 37.7825 106.0277)" class="st1" width="6.1" height="4"/>
			
				<rect id="XMLID_420_" x="60.9" y="32.1" transform="matrix(2.029807e-03 -1 1 2.029807e-03 29.6892 97.9394)" class="st1" width="6.1" height="4"/>
			
				<rect id="XMLID_419_" x="52.8" y="32.1" transform="matrix(2.029807e-03 -1 1 2.029807e-03 21.6836 89.9326)" class="st1" width="6.1" height="4"/>
			
				<rect id="XMLID_418_" x="45.1" y="32.2" transform="matrix(2.029807e-03 -1 1 2.029807e-03 13.865 82.2162)" class="st1" width="6.1" height="4"/>
		</g>
	</g>
	<g>
		<g id="XMLID_412_">
			
				<rect id="XMLID_416_" x="69.3" y="116.3" transform="matrix(1.641559e-03 -1 1 1.641559e-03 -46.0097 190.4633)" class="st1" width="6.1" height="4"/>
			
				<rect id="XMLID_415_" x="61.2" y="116.3" transform="matrix(1.641559e-03 -1 1 1.641559e-03 -54.1666 182.375)" class="st1" width="6.1" height="4"/>
			
				<rect id="XMLID_414_" x="53.2" y="116.3" transform="matrix(1.641559e-03 -1 1 1.641559e-03 -62.1273 174.3683)" class="st1" width="6.1" height="4"/>
			
				<rect id="XMLID_413_" x="45.3" y="116.2" transform="matrix(1.641559e-03 -1 1 1.641559e-03 -69.9912 166.3431)" class="st1" width="6.1" height="4"/>
		</g>
		<g id="XMLID_401_">
			<g id="XMLID_402_">
				
					<rect id="XMLID_406_" x="100.9" y="116.1" transform="matrix(1.641559e-03 -1 1 1.641559e-03 -14.3979 221.8612)" class="st1" width="6.1" height="4"/>
				
					<rect id="XMLID_405_" x="92.7" y="116.1" transform="matrix(1.641559e-03 -1 1 1.641559e-03 -22.4548 213.6732)" class="st1" width="6.1" height="4"/>
				
					<rect id="XMLID_404_" x="84.7" y="116.1" transform="matrix(1.641559e-03 -1 1 1.641559e-03 -30.4154 205.6665)" class="st1" width="6.1" height="4"/>
				
					<rect id="XMLID_403_" x="76.9" y="116.1" transform="matrix(1.641559e-03 -1 1 1.641559e-03 -38.2798 197.8411)" class="st1" width="6.1" height="4"/>
			</g>
		</g>
	</g>
</g>
<g id="_x38_089_3_">
	<g id="ESP32_14_">
		<text id="XMLID_399_" transform="matrix(0.9772 0 0 1 49.1474 76.2503)" class="st2"><tspan x="0" y="0" class="st1 st3 st4">ESP32</tspan><tspan x="16" y="18" class="st1 st3 st4">C3</tspan></text>
	</g>
</g>
<circle class="st1" cx="48.1" cy="48.2" r="1.9"/>
<g>
	<defs>
		<rect id="SVGID_1_" x="181.9" y="-9.4" width="186.7" height="438.6"/>
	</defs>
	<clipPath id="SVGID_2_">
		<use xlink:href="#SVGID_1_"  style="overflow:visible;"/>
	</clipPath>
	<g class="st5">
		
			<image style="overflow:visible;" width="573" height="398" id="Y1sMhe" xlink:href="FF8B0DCF8935D5AA.png"  transform="matrix(2.2744 0 0 2.2744 112.5662 -411.9976)">
		</image>
	</g>
</g>
</svg>
