<?xml version="1.0" encoding="UTF-8" standalone="no"?>
<!-- Generator: Adobe Illustrator 24.1.0, SVG Export Plug-In . SVG Version: 6.00 Build 0)  -->

<svg
   xmlns:dc="http://purl.org/dc/elements/1.1/"
   xmlns:cc="http://creativecommons.org/ns#"
   xmlns:rdf="http://www.w3.org/1999/02/22-rdf-syntax-ns#"
   xmlns:svg="http://www.w3.org/2000/svg"
   xmlns="http://www.w3.org/2000/svg"
   xmlns:sodipodi="http://sodipodi.sourceforge.net/DTD/sodipodi-0.dtd"
   xmlns:inkscape="http://www.inkscape.org/namespaces/inkscape"
   version="1.1"
   id="图层_1"
   x="0px"
   y="0px"
   viewBox="0 0 167 224"
   style="enable-background:new 0 0 167 224;"
   xml:space="preserve"
   sodipodi:docname="ESP32-1.svg"
   inkscape:version="0.92.3 (2405546, 2018-03-11)"><metadata
   id="metadata4142"><rdf:RDF><cc:Work
       rdf:about=""><dc:format>image/svg+xml</dc:format><dc:type
         rdf:resource="http://purl.org/dc/dcmitype/StillImage" /><dc:title></dc:title></cc:Work></rdf:RDF></metadata><defs
   id="defs4140" /><sodipodi:namedview
   pagecolor="#ffffff"
   bordercolor="#666666"
   borderopacity="1"
   objecttolerance="10"
   gridtolerance="10"
   guidetolerance="10"
   inkscape:pageopacity="0"
   inkscape:pageshadow="2"
   inkscape:window-width="1280"
   inkscape:window-height="996"
   id="namedview4138"
   showgrid="false"
   inkscape:zoom="4.7142857"
   inkscape:cx="91.784222"
   inkscape:cy="107.83945"
   inkscape:window-x="1118"
   inkscape:window-y="0"
   inkscape:window-maximized="1"
   inkscape:current-layer="图层_1" />
<style
   type="text/css"
   id="style4056">
	.st0{fill:#FFFFFF;stroke:#000000;stroke-width:0.9997;stroke-miterlimit:10;}
	.st1{font-family:'HelveticaNeue-Bold';}
	.st2{font-size:20px;}
</style>
<g
   id="g4135">
	<g
   id="g4131">
		<path
   id="XMLID_388_"
   class="st0"
   d="M27.8,171.7H141c1.9,0,3.4-1.5,3.4-3.4V59.8c0-1.9-1.5-3.4-3.4-3.4H27.8    c-1.9,0-3.4,1.5-3.4,3.4v108.5C24.5,170.2,26,171.7,27.8,171.7z" />
		<circle
   id="XMLID_352_"
   cx="45.8"
   cy="78.2"
   r="2.6" />
		<g
   id="g4129">
			<g
   id="ESP32_11_">
				<g
   id="XMLID_320_">
					<g
   id="XMLID_347_">
						<rect
   id="XMLID_351_"
   x="24.5"
   y="68.4"
   width="6.1"
   height="4" />
						<rect
   id="XMLID_350_"
   x="24.5"
   y="76.5"
   width="6.1"
   height="4" />
						<rect
   id="XMLID_349_"
   x="24.5"
   y="84.5"
   width="6.1"
   height="4" />
						<rect
   id="XMLID_348_"
   x="24.5"
   y="92.4"
   width="6.1"
   height="4" />
					</g>
					<g
   id="XMLID_342_">
						<rect
   id="XMLID_346_"
   x="24.4"
   y="100.7"
   width="6.1"
   height="4" />
						<rect
   id="XMLID_345_"
   x="24.5"
   y="108.8"
   width="6.1"
   height="4" />
						<rect
   id="XMLID_344_"
   x="24.5"
   y="116.8"
   width="6.1"
   height="4" />
						<rect
   id="XMLID_343_"
   x="24.4"
   y="124.7"
   width="6.1"
   height="4" />
					</g>
					<g
   id="XMLID_337_">
						<rect
   id="XMLID_341_"
   x="138.4"
   y="132.1"
   width="6.1"
   height="4" />
						<rect
   id="XMLID_340_"
   x="138.4"
   y="140.2"
   width="6.1"
   height="4" />
						<rect
   id="XMLID_339_"
   x="138.4"
   y="148.2"
   width="6.1"
   height="4" />
						<rect
   id="XMLID_338_"
   x="138.3"
   y="156.1"
   width="6.1"
   height="4" />
					</g>
					<g
   id="XMLID_332_">
						<rect
   id="XMLID_336_"
   x="24.6"
   y="132.2"
   width="6.1"
   height="4" />
						<rect
   id="XMLID_335_"
   x="24.7"
   y="140.3"
   width="6.1"
   height="4" />
						<rect
   id="XMLID_334_"
   x="24.7"
   y="148.3"
   width="6.1"
   height="4" />
						<rect
   id="XMLID_333_"
   x="24.6"
   y="156.2"
   width="6.1"
   height="4" />
					</g>
					<g
   id="XMLID_321_">
						<g
   id="XMLID_327_">
							<rect
   id="XMLID_331_"
   x="138.2"
   y="68.3"
   width="6.1"
   height="4" />
							<rect
   id="XMLID_330_"
   x="138.3"
   y="76.4"
   width="6.1"
   height="4" />
							<rect
   id="XMLID_329_"
   x="138.2"
   y="84.4"
   width="6.1"
   height="4" />
							<rect
   id="XMLID_328_"
   x="138.2"
   y="92.3"
   width="6.1"
   height="4" />
						</g>
						<g
   id="XMLID_322_">
							<rect
   id="XMLID_326_"
   x="138.1"
   y="100.5"
   width="6.1"
   height="4" />
							<rect
   id="XMLID_325_"
   x="138.2"
   y="108.6"
   width="6.1"
   height="4" />
							<rect
   id="XMLID_324_"
   x="138.2"
   y="116.6"
   width="6.1"
   height="4" />
							<rect
   id="XMLID_323_"
   x="138.1"
   y="124.5"
   width="6.1"
   height="4" />
						</g>
					</g>
				</g>
				<g
   id="XMLID_253_">
					<g
   id="g4107">
						<g
   id="XMLID_315_">
							
								<rect
   id="XMLID_319_"
   x="124.8"
   y="57.6"
   transform="matrix(2.029807e-03 -1 1 2.029807e-03 68.0236 187.2669)"
   width="6.1"
   height="4" />
							
								<rect
   id="XMLID_318_"
   x="116.7"
   y="57.5"
   transform="matrix(2.029807e-03 -1 1 2.029807e-03 60.0144 179.2086)"
   width="6.1"
   height="4" />
							
								<rect
   id="XMLID_317_"
   x="108.7"
   y="57.5"
   transform="matrix(2.029807e-03 -1 1 2.029807e-03 52.0385 171.2044)"
   width="6.1"
   height="4" />
							
								<rect
   id="XMLID_316_"
   x="100.8"
   y="57.5"
   transform="matrix(2.029807e-03 -1 1 2.029807e-03 44.1775 163.2546)"
   width="6.1"
   height="4" />
						</g>
						<g
   id="XMLID_310_">
							
								<rect
   id="XMLID_314_"
   x="92.6"
   y="57.5"
   transform="matrix(2.029807e-03 -1 1 2.029807e-03 35.9639 155.0762)"
   width="6.1"
   height="4" />
							
								<rect
   id="XMLID_313_"
   x="84.5"
   y="57.6"
   transform="matrix(2.029807e-03 -1 1 2.029807e-03 27.719 146.9815)"
   width="6.1"
   height="4" />
							
								<rect
   id="XMLID_312_"
   x="76.5"
   y="57.6"
   transform="matrix(2.029807e-03 -1 1 2.029807e-03 19.8245 138.9776)"
   width="6.1"
   height="4" />
							
								<rect
   id="XMLID_311_"
   x="68.6"
   y="57.6"
   transform="matrix(2.029807e-03 -1 1 2.029807e-03 11.9091 131.0549)"
   width="6.1"
   height="4" />
						</g>
						<g
   id="XMLID_305_">
							
								<rect
   id="XMLID_309_"
   x="61.1"
   y="57.5"
   transform="matrix(2.029807e-03 -1 1 2.029807e-03 4.4798 123.48)"
   width="6.1"
   height="4" />
							
								<rect
   id="XMLID_308_"
   x="53"
   y="57.5"
   transform="matrix(2.029807e-03 -1 1 2.029807e-03 -3.6109 115.3942)"
   width="6.1"
   height="4" />
							
								<rect
   id="XMLID_307_"
   x="44.9"
   y="57.5"
   transform="matrix(2.029807e-03 -1 1 2.029807e-03 -11.614 107.3901)"
   width="6.1"
   height="4" />
							
								<rect
   id="XMLID_306_"
   x="37.1"
   y="57.6"
   transform="matrix(2.029807e-03 -1 1 2.029807e-03 -19.5296 99.5759)"
   width="6.1"
   height="4" />
						</g>
					</g>
					<g
   id="g4125">
						<g
   id="XMLID_300_">
							
								<rect
   id="XMLID_304_"
   x="61.4"
   y="166.7"
   transform="matrix(1.641559e-03 -1 1 1.641559e-03 -104.2837 232.8491)"
   width="6.1"
   height="4" />
							
								<rect
   id="XMLID_303_"
   x="53.3"
   y="166.7"
   transform="matrix(1.641559e-03 -1 1 1.641559e-03 -112.438 224.7634)"
   width="6.1"
   height="4" />
							
								<rect
   id="XMLID_302_"
   x="45.3"
   y="166.7"
   transform="matrix(1.641559e-03 -1 1 1.641559e-03 -120.3961 216.7593)"
   width="6.1"
   height="4" />
							
								<rect
   id="XMLID_301_"
   x="37.4"
   y="166.6"
   transform="matrix(1.641559e-03 -1 1 1.641559e-03 -128.2575 208.7366)"
   width="6.1"
   height="4" />
						</g>
						<g
   id="XMLID_254_">
							<g
   id="XMLID_293_">
								
									<rect
   id="XMLID_299_"
   x="125.2"
   y="166.6"
   transform="matrix(1.641559e-03 -1 1 1.641559e-03 -40.5481 296.5365)"
   width="6.1"
   height="4" />
								
									<rect
   id="XMLID_298_"
   x="117.1"
   y="166.6"
   transform="matrix(1.641559e-03 -1 1 1.641559e-03 -48.7024 288.4508)"
   width="6.1"
   height="4" />
								
									<rect
   id="XMLID_295_"
   x="109.1"
   y="166.6"
   transform="matrix(1.641559e-03 -1 1 1.641559e-03 -56.6605 280.4467)"
   width="6.1"
   height="4" />
								
									<rect
   id="XMLID_294_"
   x="101.1"
   y="166.5"
   transform="matrix(1.641559e-03 -1 1 1.641559e-03 -64.5219 272.424)"
   width="6.1"
   height="4" />
							</g>
							<g
   id="XMLID_255_">
								
									<rect
   id="XMLID_292_"
   x="92.9"
   y="166.4"
   transform="matrix(1.641559e-03 -1 1 1.641559e-03 -72.582 264.1373)"
   width="6.1"
   height="4" />
								
									<rect
   id="XMLID_291_"
   x="84.8"
   y="166.5"
   transform="matrix(1.641559e-03 -1 1 1.641559e-03 -80.7363 256.0515)"
   width="6.1"
   height="4" />
								
									<rect
   id="XMLID_257_"
   x="76.8"
   y="166.4"
   transform="matrix(1.641559e-03 -1 1 1.641559e-03 -88.6944 248.0474)"
   width="6.1"
   height="4" />
								
									<rect
   id="XMLID_256_"
   x="68.9"
   y="166.5"
   transform="matrix(1.641559e-03 -1 1 1.641559e-03 -96.656 240.1245)"
   width="6.1"
   height="4" />
							</g>
						</g>
					</g>
				</g>
			</g>
		</g>
	</g>
	<g
   id="ESP32_10_">
		<text
   id="XMLID_252_"
   transform="scale(0.98853428,1.0115987)"
   class="st1 st2"
   style="font-style:normal;font-variant:normal;font-weight:normal;font-stretch:normal;font-size:28px;font-family:'DejaVu Sans';-inkscape-font-specification:'DejaVu Sans, Normal';font-variant-ligatures:normal;font-variant-caps:normal;font-variant-numeric:normal;font-feature-settings:normal;text-align:center;writing-mode:lr-tb;text-anchor:middle;stroke-width:0.98853427"
   x="85.622292"
   y="123.01909">ESP32</text>

	</g>
</g>
</svg>