<svg width="600" height="200" xmlns="http://www.w3.org/2000/svg">
  <defs>
    <style>
      .box { fill: #f0f0f0; stroke: #333; stroke-width: 2; }
      .text { font-family: Arial, sans-serif; font-size: 12px; text-anchor: middle; dominant-baseline: middle; }
      .small-text { font-family: Arial, sans-serif; font-size: 10px; text-anchor: middle; dominant-baseline: middle; }
      .wire { stroke: #333; stroke-width: 1.5; fill: none; }
      .arrow { fill: #333; }
    </style>
  </defs>

  <!-- SAR ADC -->
  <rect x="10" y="15" width="100" height="40" class="box"/>
  <text x="60" y="35" class="text">SAR ADC</text>

  <!-- High Speed ADC -->
  <rect x="10" y="80" width="100" height="40" class="box"/>
  <text x="60" y="95" class="text">High Speed</text>
  <text x="60" y="110" class="text">ADC</text>

  <!-- RC_FAST_CLK -->
  <rect x="10" y="140" width="100" height="40" class="box"/>
  <text x="60" y="160" class="small-text">RC_FAST_CLK</text>

  <!-- Entropy source labels -->
  <text x="150" y="20" class="small-text">Entropy source</text>

  <text x="150" y="107" class="small-text">Entropy source</text>

  <text x="150" y="155" class="small-text">Entropy source</text>

  <!-- XOR gates -->
  <!-- First XOR gate -->
  <path d="M 200 30 Q 210 30 220 40 Q 210 50 200 50 L 180 50 Q 190 40 180 30 Z" class="box"/>
  <text x="200" y="40" class="small-text">XOR</text>

  <!-- Second XOR gate -->
  <path d="M 280 70 Q 290 70 300 80 Q 290 90 280 90 L 260 90 Q 270 80 260 70 Z" class="box"/>
  <text x="280" y="80" class="small-text">XOR</text>

  <!-- Random Number Generator -->
  <rect x="350" y="60" width="120" height="40" class="box"/>
  <text x="410" y="75" class="text">Random</text>
  <text x="410" y="85" class="text">Number</text>
  <text x="410" y="95" class="text">Generator</text>

  <!-- RNG_DATA_REG output -->
  <text x="520" y="70" class="text">RNG_DATA_REG</text>

  <!-- Wires -->
  <!-- SAR ADC to first XOR (top input) -->
  <line x1="110" y1="35" x2="180" y2="35" class="wire"/>

  <!-- High Speed ADC to first XOR (bottom input) -->
  <line x1="110" y1="100" x2="140" y2="100" class="wire"/>
  <line x1="140" y1="100" x2="140" y2="45" class="wire"/>
  <line x1="140" y1="45" x2="180" y2="45" class="wire"/>

  <!-- RC_FAST_CLK to second XOR (bottom input) -->
  <line x1="110" y1="160" x2="240" y2="160" class="wire"/>
  <line x1="240" y1="160" x2="240" y2="85" class="wire"/>
  <line x1="240" y1="85" x2="260" y2="85" class="wire"/>

  <!-- First XOR to second XOR (top input) -->
  <line x1="220" y1="40" x2="240" y2="40" class="wire"/>
  <line x1="240" y1="40" x2="240" y2="75" class="wire"/>
  <line x1="240" y1="75" x2="260" y2="75" class="wire"/>

  <!-- Second XOR to RNG -->
  <line x1="300" y1="80" x2="350" y2="80" class="wire"/>

  <!-- RNG to output -->
  <line x1="470" y1="80" x2="520" y2="80" class="wire"/>

  <!-- Arrow at the end -->
  <polygon points="520,75 520,85 530,80" class="arrow"/>
</svg>
